# xmcd CD database file
#
# Track frame offsets:
#	150
#	14130
#	27657
#	45387
#	57655
#	71427
#	90372
#	101247
#	113647
#	125910
#	138787
#	151087
#	164270
#	176647
#	190432
#
# Disc length: 2725 seconds
#
# Revision: 0
# Processed by: cddbd v1.5.2PL0 Copyright (c) Steve Scherf et al.
# Submitted via: CDex 1.51
#
DISCID=d10aa30f
DTITLE=Howlin' Wolf - Sings The Blues
DYEAR=1900
DGENRE=Blues
TTITLE0=Riding In The Moonlight
TTITLE1=Worried About My Baby
TTITLE2=Crying At Daylight (aka Crying At Daybreak)
TTITLE3=Brown Skin Woman (aka Chocolate Drop)
TTITLE4=My Baby Stole Off
TTITLE5=House Rockin' Boogie
TTITLE6=Keep What You Got
TTITLE7=Dog Me Around (aka How Many More Years)
TTITLE8=Morning At Midnight (aka Moanin' At Midnight)
TTITLE9=I Want Your Picture
TTITLE10=Passing By Blues
TTITLE11=Driving This Highway
TTITLE12=The Sun Is Rising
TTITLE13=Stealing My Clothes (aka My Friends)
TTITLE14=I'm The Wolf
EXTD=
EXTT0=
EXTT1=
EXTT2=
EXTT3=
EXTT4=
EXTT5=
EXTT6=
EXTT7=
EXTT8=
EXTT9=
EXTT10=
EXTT11=
EXTT12=
EXTT13=
EXTT14=
PLAYORDER=
